<svg fill="none" height="24" viewBox="0 0 24 24" width="24" xmlns="http://www.w3.org/2000/svg"><g fill="#292d32"><path d="m11.8195 6.9c2.86-.62 5.76-.71 8.63-.24-1.77-2.8-4.89-4.66-8.45-4.66-3.10997 0-5.88997 1.42-7.72997 3.65.44 1.3 1 2.54 1.67 3.72.38.68 1.35.65 1.74-.02.85-1.43 2.37997-2.39 4.13997-2.45z"/><path d="m7.72002 14.7214c-2-2.14-3.56-4.58-4.63-7.27999-1.5 2.95999-1.49 6.58999.34 9.63999 1.6 2.67 4.24 4.33 7.09998 4.76.89-1.05 1.67-2.17 2.34-3.34.39-.68-.14-1.49-.92-1.49-1.67.01-3.27998-.81-4.22998-2.29z"/><path d="m8.57031 11.9982c0 .61.15 1.18.46 1.72.61 1.05 1.73999 1.71 2.95999 1.71s2.36-.66 2.96-1.71c.31-.54.47-1.11.47-1.72 0-1.89-1.54-3.42003-3.43-3.42003-1.88-.01-3.41999 1.53003-3.41999 3.42003z"/><path d="m21.3402 8.41931c-1.37-.29-2.76-.45-4.14-.47-.79-.01-1.24.85-.85 1.54.4.70999.63 1.52999.63 2.39999 0 .84-.22 1.67-.63 2.41-.94 2.88-2.34 5.44-4.19 7.7 5.45-.09 9.84-4.53 9.84-10 0-1.26-.23-2.46999-.66-3.57999z"/></g></svg>